<svg data-v-d9729e72="" xmlns="http://www.w3.org/2000/svg" width="200" height="200" class="icon avatar" viewBox="0 0 1024 1024"><path fill="#FF6A00" d="M326.144 463.36c19.968 55.808 81.408 84.992 137.216 65.024 42.496-15.36 71.168-55.808 71.168-100.864 0-45.568-28.672-86.016-71.168-101.376 102.4-26.624 207.36 34.816 234.496 137.216S663.04 670.72 560.64 697.856 353.28 663.04 326.144 560.64c-8.192-31.744-8.192-65.536 0-97.28zM512 981.504c-259.072 0-469.504-209.92-469.504-469.504S252.928 42.496 512 42.496 981.504 252.416 981.504 512 771.072 981.504 512 981.504zm0-171.008c164.864 0 298.496-133.632 298.496-298.496S676.864 213.504 512 213.504 213.504 347.136 213.504 512 347.136 810.496 512 810.496zM384 107.52c32.256 39.936 80.896 62.976 132.608 62.976 51.2 0 100.352-23.04 132.608-62.976-42.496-14.848-87.552-22.016-132.608-22.016-46.592 0-91.136 7.68-132.608 22.016z"></path></svg>